<?xml version="1.0" encoding="UTF-8" standalone="no"?><!DOCTYPE svg PUBLIC "-//W3C//DTD SVG 1.1//EN" "http://www.w3.org/Graphics/SVG/1.1/DTD/svg11.dtd"><svg width="100%" height="100%" viewBox="0 0 32 32" version="1.1" xmlns="http://www.w3.org/2000/svg" xmlns:xlink="http://www.w3.org/1999/xlink" xml:space="preserve" xmlns:serif="http://www.serif.com/" style="fill-rule:evenodd;clip-rule:evenodd;stroke-linejoin:round;stroke-miterlimit:2;"><path d="M31.282,26.14l-2.923,-0l-2.92,-5.059l-1.46,-2.531l-0.733,-1.261l-0.729,1.261l-1.462,2.531l-1.461,2.53l-1.46,2.529l-1.46,-0l0,0.004l-2.92,-0l-1.461,-2.531l-2.92,-5.059l-0.733,-1.265l-0.729,1.265l-1.46,2.531l-1.46,2.528l-1.463,2.531l-2.92,-0l1.46,-2.531l1.46,-2.528l1.463,-2.531l1.46,-2.53l1.46,-0l1.462,-2.529l2.92,-5.059l1.461,-2.53l4.38,-0l1.46,2.53l1.461,2.529l-2.921,-0l-1.46,-2.529l-0.731,-1.267l-0.731,1.267l-1.458,2.529l-1.461,2.53l-1.46,2.529l2.921,5.061l1.458,2.528l0.731,1.265l0.731,-1.267l2.92,-5.061l1.461,-2.528l4.384,-0l2.92,5.059l1.461,2.53l1.462,2.529Z" style="fill:#6a4bfa;fill-rule:nonzero;"/></svg>