<?xml version="1.0" encoding="UTF-8" standalone="no"?><!DOCTYPE svg PUBLIC "-//W3C//DTD SVG 1.1//EN" "http://www.w3.org/Graphics/SVG/1.1/DTD/svg11.dtd"><svg width="100%" height="100%" viewBox="0 0 48 48" version="1.1" xmlns="http://www.w3.org/2000/svg" xmlns:xlink="http://www.w3.org/1999/xlink" xml:space="preserve" xmlns:serif="http://www.serif.com/" style="fill-rule:evenodd;clip-rule:evenodd;stroke-linejoin:round;stroke-miterlimit:2;"><path d="M46.722,38.994l-4.318,-0l-4.315,-7.475l-2.157,-3.739l-1.083,-1.864l-1.078,1.864l-2.16,3.739l-2.158,3.739l-2.157,3.736l-2.158,-0l0,0.006l-4.315,-0l-2.157,-3.74l-4.315,-7.475l-1.083,-1.869l-1.078,1.869l-2.157,3.739l-2.158,3.736l-2.16,3.74l-4.315,-0l2.157,-3.74l2.158,-3.736l2.16,-3.739l2.158,-3.739l2.157,0l2.161,-3.736l4.315,-7.475l2.157,-3.739l6.473,0l2.157,3.739l2.158,3.736l-4.315,0l-2.158,-3.736l-1.08,-1.872l-1.08,1.872l-2.155,3.736l-2.157,3.739l-2.158,3.736l4.315,7.478l2.155,3.736l1.08,1.87l1.08,-1.872l4.315,-7.478l2.158,-3.736l6.478,-0l4.315,7.475l2.158,3.739l2.16,3.736Z" style="fill:#6a4bfa;fill-rule:nonzero;"/></svg>