<?xml version="1.0" encoding="UTF-8" standalone="no"?><!DOCTYPE svg PUBLIC "-//W3C//DTD SVG 1.1//EN" "http://www.w3.org/Graphics/SVG/1.1/DTD/svg11.dtd"><svg width="100%" height="100%" viewBox="0 0 16 16" version="1.1" xmlns="http://www.w3.org/2000/svg" xmlns:xlink="http://www.w3.org/1999/xlink" xml:space="preserve" xmlns:serif="http://www.serif.com/" style="fill-rule:evenodd;clip-rule:evenodd;stroke-linejoin:round;stroke-miterlimit:2;"><path d="M15.603,12.945l-1.446,0l-1.446,-2.504l-0.723,-1.252l-0.362,-0.624l-0.361,0.624l-0.724,1.252l-0.723,1.253l-0.723,1.251l-0.722,0l-0,0.002l-1.446,0l-0.723,-1.252l-1.445,-2.504l-0.363,-0.626l-0.361,0.626l-0.722,1.252l-0.723,1.252l-0.724,1.252l-1.445,0l0.722,-1.252l0.723,-1.252l0.724,-1.252l0.723,-1.253l0.722,0l0.724,-1.251l1.445,-2.504l0.723,-1.253l2.168,0l0.723,1.253l0.723,1.251l-1.446,0l-0.722,-1.251l-0.362,-0.628l-0.362,0.628l-0.722,1.251l-0.723,1.253l-0.722,1.251l1.445,2.505l0.722,1.252l0.362,0.626l0.362,-0.627l1.445,-2.505l0.723,-1.252l2.17,0l1.446,2.504l0.722,1.253l0.724,1.251Z" style="fill:#6a4bfa;fill-rule:nonzero;"/></svg>