<svg width="147" height="32" viewBox="0 0 147 32" fill="none" xmlns="http://www.w3.org/2000/svg">
<path d="M41.3576 25.3973L34.9215 31.7395H43.2064L49.6424 25.3973H41.3576Z" fill="#313D4F"/>
<path d="M19.8314 31.7396H28.1163L42.3053 17.7576H34.0175L19.8314 31.7396Z" fill="#313D4F"/>
<path d="M27.0117 10.0461L5.00293 31.7396H13.2878L35.2994 10.0461H27.0117Z" fill="#313D4F"/>
<path d="M27.3808 0.988283C38.3198 1.06276 47.4012 8.48776 49.6366 17.6802H54.6366C50.4012 7.65417 39.8692 0 27.3808 0C14.8924 0 4.23547 7.65703 0 17.6802H4.96221C7.19767 8.48776 16.4448 1.06276 27.3808 0.988283Z" fill="#313D4F"/>
<path d="M118.724 4.57764H110.654C112.209 5.45993 112.209 7.19587 112.209 8.1555V16.8037H97.4012V8.1555C97.4012 7.19587 97.4012 5.45993 98.9535 4.57764H90.8867C92.439 5.45993 92.439 7.19587 92.439 8.1555V28.1646C92.439 29.1243 92.439 30.8573 90.8867 31.7396H98.9535C97.4012 30.8573 97.4012 29.1243 97.4012 28.1646V18.8289H112.209V28.1646C112.209 29.1243 112.209 30.8573 110.654 31.7396H118.724C117.172 30.8573 117.172 29.1243 117.172 28.1646V8.1555C117.172 7.19587 117.172 5.45993 118.724 4.57764Z" fill="#313D4F"/>
<path d="M69.7006 18.8289H80.2762V16.8036H69.7006V6.63435H83.9622V4.58044H63.1628C64.7209 5.45987 64.7209 7.19581 64.7209 8.15544V28.1646C64.7209 29.1242 64.7209 30.8601 63.1628 31.7396H83.9564V29.7143H69.7006V18.8289Z" fill="#313D4F"/>
<path d="M146.442 29.8031H132.198V8.13255C132.198 7.17005 132.198 5.43698 133.759 4.55469H125.663C127.221 5.43698 127.221 7.17005 127.221 8.13255V28.1388C127.221 29.0984 127.221 30.8344 125.663 31.7167H146.456L146.442 29.8031Z" fill="#313D4F"/>
</svg>
