<svg width="170" height="41" viewBox="0 0 170 41" fill="none" xmlns="http://www.w3.org/2000/svg">
<g clip-path="url(#clip0_27_1257)">
<path fill-rule="evenodd" clip-rule="evenodd" d="M32.7317 28.5655C30.7649 28.8672 28.8964 30.7224 28.5799 32.6912C28.2612 34.6588 29.5489 35.9622 31.4428 35.5881C33.3357 35.2164 35.2042 33.3601 35.5946 31.4636C35.9849 29.5659 34.6972 28.2626 32.7317 28.5655ZM36.3607 0H5.68226C2.5583 0 0 2.55558 0 5.67733V36.322C0 39.4449 2.50828 41.5009 5.57446 40.8937L15.5687 38.9142C18.6338 38.3081 21.3288 36.1933 21.5588 34.2139C21.7855 32.2389 20.4264 30.8601 18.5326 31.152H18.5249L17.0568 31.3807C15.9743 31.5484 15.1597 30.7924 15.2431 29.7033L15.3953 27.7161V27.7139V27.7106L15.5487 25.7234C15.632 24.6354 16.59 23.643 17.6758 23.5253L19.2817 23.3443C21.2499 23.1245 23.0447 21.3338 23.2769 19.3578L23.4647 17.7358C23.5881 16.6468 24.5861 15.6954 25.6741 15.6143L27.6511 15.47H27.6545H27.6578L29.6338 15.3235C30.7251 15.2424 31.4764 16.0584 31.303 17.1375L31.0629 18.6339V18.6351C30.7573 20.5401 32.1187 21.92 34.088 21.7002C36.0573 21.4793 38.1833 18.7994 38.8112 15.7409L40.9005 5.56076C41.5284 2.50451 39.4869 0 36.3607 0Z" fill="black"/>
<path fill-rule="evenodd" clip-rule="evenodd" d="M54.3198 29.6409L54.866 24.3542C54.903 24.1036 54.9255 23.8697 54.9356 23.6546C54.9445 23.4372 54.9086 23.251 54.8268 23.1013C54.7449 22.9461 54.5946 22.8307 54.377 22.7498C54.1571 22.6677 53.8307 22.6278 53.3933 22.6278H49.5998L48.6464 31.5302H52.2212C52.6934 31.5302 53.0613 31.4859 53.3249 31.395C53.5873 31.3052 53.7892 31.1732 53.9238 31.0047C54.0618 30.8328 54.1526 30.631 54.1986 30.3982C54.2435 30.1642 54.2861 29.9092 54.3198 29.6409ZM52.7652 33.9574H52.0832C51.8286 33.9574 51.5325 33.9474 51.196 33.9296C50.8595 33.913 50.4635 33.8842 50.0093 33.8498C49.555 33.8132 49.0278 33.7589 48.4288 33.6857L47.8546 39.2174H44.5804L46.5433 20.4713C47.637 20.3981 48.5623 20.3449 49.3273 20.3072C50.0923 20.2728 50.7551 20.2462 51.3193 20.2295C51.8847 20.2107 52.3838 20.2029 52.8201 20.2029H54.2121C55.0309 20.2029 55.7095 20.2817 56.2445 20.4446C56.7807 20.6054 57.208 20.8338 57.5277 21.1321C57.8451 21.4281 58.0526 21.7918 58.1547 22.2253C58.2545 22.6533 58.2781 23.1312 58.222 23.6546L57.4862 30.5035C57.4312 31.0257 57.309 31.5003 57.1172 31.9338C56.9265 32.3663 56.6438 32.7299 56.2726 33.0271C55.8979 33.322 55.4257 33.5515 54.8537 33.7145C54.2794 33.8753 53.584 33.9574 52.7652 33.9574ZM67.524 22.6357H64.3496L63.2116 33.8696H60.035L61.3851 20.4732C62.4436 20.3987 63.2856 20.3442 63.9122 20.3075C64.5367 20.273 65.0589 20.2474 65.4723 20.2296C65.8867 20.2107 66.2544 20.2029 66.571 20.2029H67.7623L67.524 22.6357ZM74.7196 31.4081C75.5215 31.4081 76.0839 31.2767 76.4157 31.0127C76.7441 30.7487 76.9375 30.3319 76.9891 29.7668L77.5515 24.3024C77.6032 23.7373 77.4933 23.3227 77.2176 23.0587C76.9408 22.7947 76.4025 22.6621 75.6017 22.6621H74.4779C73.676 22.6621 73.1103 22.7947 72.7807 23.0587C72.4523 23.3227 72.2611 23.7373 72.2062 24.3024L71.646 29.7668C71.5921 30.3319 71.702 30.7487 71.9788 31.0127C72.2556 31.2767 72.7939 31.4081 73.5958 31.4081H74.7196ZM72.3139 33.8696C71.5109 33.8696 70.8496 33.7876 70.3234 33.6236C69.7961 33.4595 69.3776 33.2225 69.0678 32.9259C68.7536 32.6237 68.5493 32.2541 68.4504 31.8182C68.3548 31.3812 68.3307 30.897 68.3856 30.369L69.0524 23.7013C69.1073 23.1744 69.2304 22.6891 69.427 22.2532C69.6236 21.8139 69.9037 21.4443 70.2684 21.1466C70.6342 20.8455 71.0978 20.6152 71.6592 20.449C72.2183 20.2838 72.9005 20.2029 73.7035 20.2029H76.9111C77.713 20.2029 78.3754 20.2838 78.9016 20.449C79.4256 20.6152 79.8397 20.8455 80.1429 21.1466C80.4461 21.4443 80.646 21.8139 80.7449 22.2532C80.8427 22.6891 80.8646 23.1744 80.8097 23.7013L80.1429 30.369C80.0902 30.897 79.9693 31.3812 79.7826 31.8182C79.5959 32.2541 79.319 32.6237 78.9532 32.9259C78.5874 33.2225 78.125 33.4595 77.5647 33.6236C77.0034 33.7876 76.3223 33.8696 75.5215 33.8696H72.3139ZM85.9729 29.4941C85.9551 29.766 85.9407 30.0244 85.9329 30.2603C85.9229 30.4962 85.9684 30.7029 86.0672 30.8736C86.166 31.0466 86.3381 31.1792 86.5801 31.269C86.8221 31.3623 87.1773 31.4061 87.6469 31.4061H92.6355L92.8775 31.6802L92.7954 32.3632C92.741 32.9091 92.5478 33.2989 92.2137 33.5258C91.8818 33.7516 91.3101 33.8696 90.4997 33.8696H86.6212C85.8108 33.8696 85.1415 33.7865 84.6086 33.6225C84.078 33.4584 83.6551 33.2214 83.3398 32.9249C83.0246 32.6227 82.8181 32.2531 82.7182 31.8172C82.6194 31.3803 82.5961 30.8961 82.6527 30.3681L83.3265 23.701C83.3809 23.1742 83.5052 22.69 83.705 22.253C83.9026 21.8138 84.1857 21.4442 84.5542 21.1465C84.925 20.8455 85.3923 20.6152 85.9607 20.4489C86.5279 20.2849 87.2162 20.2029 88.0254 20.2029H91.904C92.7143 20.2029 93.2616 20.3186 93.5502 20.5433C93.8399 20.7713 93.9576 21.1578 93.9032 21.706L93.8211 22.3878L93.5247 22.6619H88.5405C88.0687 22.6619 87.7057 22.7069 87.4448 22.8001C87.184 22.8911 86.9853 23.0214 86.8521 23.1955C86.7166 23.3696 86.6289 23.573 86.5945 23.8078C86.559 24.047 86.5202 24.302 86.4857 24.5728L85.9729 29.4941ZM100.077 20.2029L99.0727 29.7031C99.018 30.226 99.1219 30.6443 99.3856 30.9614C99.647 31.274 100.213 31.4353 101.085 31.4353H104.316L105.513 20.2029H108.776L107.363 33.5981C106.276 33.6704 105.351 33.725 104.589 33.7628C103.827 33.7973 103.166 33.8251 102.607 33.8429C102.044 33.8596 101.536 33.8696 101.085 33.8696H99.7241C98.9063 33.8696 98.2337 33.7884 97.6974 33.6259C97.1644 33.4635 96.7387 33.2332 96.4226 32.9362C96.103 32.6391 95.8963 32.2742 95.7969 31.8403C95.6963 31.4042 95.674 30.9291 95.7276 30.4051L96.8158 20.2029H100.077ZM118.049 22.6357H114.875L113.736 33.8696H110.559L111.91 20.4732C112.968 20.3987 113.811 20.3442 114.436 20.3075C115.064 20.273 115.584 20.2474 115.998 20.2296C116.413 20.2107 116.779 20.2029 117.096 20.2029H118.287L118.049 22.6357ZM123.088 26.3515H126.276C127.133 26.3515 127.726 26.1909 128.059 25.8752C128.388 25.5561 128.579 25.1303 128.634 24.6023L128.661 24.4125C128.715 23.8844 128.607 23.4598 128.338 23.1407C128.071 22.8217 127.507 22.6621 126.651 22.6621H125.846C124.918 22.6621 124.27 22.8396 123.905 23.1947C123.538 23.5519 123.331 24.0091 123.274 24.5731L123.088 26.3515ZM122.821 29.0849C122.786 29.3938 122.777 29.6904 122.794 29.9735C122.811 30.2566 122.89 30.5004 123.035 30.7127C123.178 30.9194 123.392 31.0891 123.678 31.216C123.964 31.3441 124.355 31.4081 124.855 31.4081H129.811L130.052 31.6811L129.971 32.3642C129.92 32.9102 129.726 33.3 129.396 33.5269C129.067 33.7528 128.5 33.8696 127.695 33.8696H123.678C122.875 33.8696 122.196 33.7719 121.643 33.582C121.09 33.3888 120.644 33.1236 120.304 32.7877C119.965 32.4507 119.73 32.0496 119.606 31.5856C119.482 31.1194 119.446 30.624 119.499 30.096L120.142 23.7013C120.197 23.1722 120.322 22.6891 120.516 22.2532C120.714 21.8139 120.996 21.4443 121.362 21.1466C121.727 20.8455 122.192 20.6152 122.756 20.449C123.317 20.2838 123.999 20.2029 124.804 20.2029H128.016C128.821 20.2029 129.486 20.2838 130.013 20.449C130.542 20.6152 130.956 20.8455 131.26 21.1466C131.561 21.4443 131.765 21.8139 131.862 22.2532C131.96 22.6891 131.984 23.1722 131.929 23.7013L131.77 25.3123C131.712 25.8426 131.594 26.3257 131.407 26.7627C131.22 27.1986 130.943 27.5671 130.574 27.8682C130.21 28.1681 129.744 28.4029 129.181 28.567C128.62 28.731 127.937 28.8107 127.133 28.8107H126.169C125.955 28.8107 125.726 28.8029 125.486 28.7838C125.246 28.7647 124.931 28.7388 124.55 28.7006C124.166 28.6681 123.608 28.6119 122.875 28.5366L122.821 29.0849ZM147.792 29.4941C147.774 29.766 147.762 30.0244 147.752 30.2603C147.743 30.4962 147.787 30.7029 147.886 30.8736C147.986 31.0466 148.156 31.1792 148.4 31.269C148.644 31.3623 148.998 31.4061 149.468 31.4061H154.452L154.695 31.6802L154.615 32.3632C154.562 32.9091 154.366 33.2989 154.033 33.5258C153.699 33.7516 153.129 33.8696 152.318 33.8696H148.44C147.63 33.8696 146.959 33.7865 146.428 33.6225C145.897 33.4584 145.473 33.2214 145.16 32.9249C144.844 32.6227 144.637 32.2531 144.536 31.8172C144.438 31.3803 144.415 30.8961 144.47 30.3681L145.144 23.701C145.2 23.1742 145.323 22.69 145.524 22.253C145.722 21.8138 146.006 21.4442 146.375 21.1465C146.742 20.8455 147.212 20.6152 147.777 20.4489C148.346 20.2849 149.033 20.2029 149.845 20.2029H153.723C154.533 20.2029 155.08 20.3186 155.372 20.5433C155.656 20.7713 155.775 21.1578 155.722 21.706L155.64 22.3878L155.343 22.6619H150.359C149.889 22.6619 149.526 22.7069 149.262 22.8001C149.002 22.8911 148.804 23.0214 148.669 23.1955C148.533 23.3696 148.447 23.573 148.414 23.8078C148.375 24.047 148.34 24.302 148.305 24.5728L147.792 29.4941ZM166.621 24.4958C166.658 24.2256 166.675 23.971 166.675 23.7355C166.675 23.4999 166.626 23.2967 166.525 23.1259C166.425 22.9517 166.253 22.8222 166.008 22.7306C165.763 22.6402 165.404 22.5955 164.932 22.5955H161.365L160.192 33.8696H156.923L158.911 14.8551H162.18L161.581 20.424C162.815 20.2778 163.754 20.1963 164.399 20.1795C165.047 20.1605 165.566 20.1527 165.967 20.1527C166.784 20.1527 167.46 20.232 167.996 20.3961C168.533 20.558 168.958 20.7891 169.275 21.0883C169.593 21.3864 169.804 21.7526 169.904 22.188C170.004 22.6201 170.026 23.1013 169.97 23.6283L168.909 33.8696H165.64L166.621 24.4958Z" fill="#1D1D1B"/>
<path fill-rule="evenodd" clip-rule="evenodd" d="M138.781 23.8074C136.977 24.0857 135.264 25.7858 134.974 27.5904C134.684 29.3928 135.864 30.5871 137.599 30.2462C139.333 29.9031 141.046 28.2018 141.405 26.4643C141.762 24.7268 140.582 23.5325 138.781 23.8074Z" fill="black"/>
</g>
<defs>
<clipPath id="clip0_27_1257">
<rect width="170" height="41" fill="white"/>
</clipPath>
</defs>
</svg>
