<svg width="159" height="41" viewBox="0 0 159 41" fill="none" xmlns="http://www.w3.org/2000/svg">
<g clip-path="url(#clip0_27_1262)">
<path fill-rule="evenodd" clip-rule="evenodd" d="M3.26722 9.71212C3.38718 9.26707 14.463 1.59493 15.7359 0.584587C15.9117 0.445025 16.5215 0.108341 16.7747 0.113621C19.7326 0.175308 23.8657 -0.165762 26.7267 0.107677C27.0403 0.0844505 28.7061 1.388 29.0776 1.65659L33.255 4.67801C35.3016 6.1579 38.2139 8.10767 40.0589 9.62476C40.7797 11.5856 41.3968 13.6987 42.0728 15.6874C42.2887 16.3226 43.1431 18.8111 43.2 19.3459L43.2868 19.5141C42.6843 21.3611 38.6596 34.2683 38.117 34.9151C37.4363 35.7266 35.8253 36.6811 34.9392 37.3176C33.2626 38.5218 31.602 39.7783 29.8892 40.9305C29.5112 41.0126 26.0258 40.9842 25.4326 40.984L14.3331 40.9669C12.8153 40.0646 11.0766 38.8368 9.55087 37.8579C8.35606 37.0914 6.215 35.7635 5.20761 34.9322L5.13193 34.8993C4.87272 34.6122 0.497822 20.9891 0 19.4654L2.11029 12.9653C2.30819 12.3585 2.98939 10.1179 3.26722 9.71212ZM21.64 11.3164C18.5908 13.5924 15.4361 15.7522 12.3868 18.0172C13.1481 20.251 13.8886 22.4918 14.608 24.7396C15.0131 25.9855 15.56 27.5253 15.8977 28.7712C19.7021 28.8422 23.5773 28.722 27.4062 28.7956C28.1303 26.5071 28.8672 24.2223 29.6166 21.9416C29.978 20.838 30.5035 19.0831 30.947 18.0563C27.9398 15.7854 24.6965 13.5633 21.64 11.3164Z" fill="#D9D9D9"/>
<path d="M26.8448 7.53955C31.8729 11.2645 37.0132 14.8541 42.0617 18.5535C42.4143 18.8118 42.8288 19.1175 43.2 19.3459L43.2868 19.5141C42.6843 21.3611 38.6596 34.2683 38.1171 34.9151C37.4363 35.7265 35.8253 36.6811 34.9392 37.3176C33.2626 38.5218 31.6021 39.7782 29.8892 40.9305C29.9552 40.1582 31.2045 36.8018 31.514 35.8566L36.1112 21.7561C34.4376 20.5622 32.6296 19.1825 30.947 18.0563C27.9398 15.7854 24.6965 13.5633 21.64 11.3164C23.3071 10.1406 25.2374 8.78588 26.8448 7.53955Z" fill="#E6E6E6"/>
<path fill-rule="evenodd" clip-rule="evenodd" d="M12.3869 18.0172L10.3986 11.9266L20.3623 4.74318C22.3676 3.29658 24.8335 1.62167 26.7268 0.107728C27.0403 0.0845018 28.7061 1.38805 29.0776 1.65664L33.2551 4.67806C35.3016 6.15796 38.214 8.10772 40.0589 9.62481C40.7797 11.5856 41.3968 13.6988 42.0728 15.6875C42.2887 16.3227 43.1432 18.8111 43.2 19.346C42.8288 19.1176 42.4143 18.8119 42.0617 18.5536C37.0132 14.8542 31.8729 11.2645 26.8448 7.53961C25.2374 8.78594 23.3071 10.1406 21.64 11.3164C18.5908 13.5925 15.4361 15.7523 12.3869 18.0172Z" fill="#D8D8D8"/>
<path d="M3.26721 9.71212C3.38717 9.26707 14.463 1.59493 15.7359 0.584587C15.9116 0.445025 16.5215 0.108341 16.7747 0.113621C19.7326 0.175308 23.8657 -0.165762 26.7267 0.107677C24.8334 1.62162 22.3675 3.29653 20.3623 4.74313L10.3985 11.9265L12.3868 18.0172C13.1481 20.251 13.8885 22.4918 14.6079 24.7396C15.0131 25.9855 15.56 27.5253 15.8977 28.7712C14.1744 28.7694 11.0842 28.6763 9.49398 28.8171C7.52849 22.469 5.27921 16.073 3.26721 9.71212Z" fill="#979797"/>
<path d="M0 19.4654L2.11029 12.9653C2.30819 12.3585 2.98939 10.1179 3.26722 9.71216C5.27922 16.0731 7.5285 22.469 9.49399 28.8172C10.3337 28.9545 13.8479 28.8448 14.8509 28.8551C19.0043 28.8978 23.2242 28.7948 27.3775 28.8702L25.3931 34.9182L12.2057 34.9021C10.3956 34.9023 6.89947 34.7917 5.20761 34.9322L5.13193 34.8993C4.87272 34.6122 0.497822 20.9891 0 19.4654Z" fill="#E3E3E3"/>
<path fill-rule="evenodd" clip-rule="evenodd" d="M155.167 11.3868C156.538 11.3382 157.221 11.7109 157.904 12.8935C157.906 12.3932 157.73 11.8308 158.112 11.4765C158.439 11.4399 158.526 11.4272 158.845 11.5013C158.978 11.6927 158.982 12.1166 158.972 12.3484C158.894 14.1776 159.004 16.3564 158.88 18.145C158.617 21.9249 152.737 20.503 153.131 18.5207C153.341 18.273 153.352 18.341 153.742 18.2976C154.214 18.406 154.205 18.8252 154.58 19.1818C154.914 19.4971 155.471 19.677 155.936 19.6675C158.159 19.6213 157.934 17.6453 157.915 16.1497C157.48 16.8687 156.997 17.3925 156.137 17.6029C155.461 17.7663 154.747 17.6541 154.154 17.2911C151.964 15.9546 152.146 12.0773 155.167 11.3868ZM155.222 12.3299C152.667 13.4511 153.572 17.2131 156.386 16.686C157.689 16.2034 158.269 14.9494 157.775 13.6499C157.575 13.1125 157.165 12.6793 156.638 12.4497C156.182 12.2488 155.715 12.279 155.222 12.3299Z" fill="black"/>
<path fill-rule="evenodd" clip-rule="evenodd" d="M133.301 11.3957C134.736 11.3283 135.412 11.6872 136.124 12.929C136.128 12.36 135.959 11.8854 136.311 11.4843C136.634 11.44 136.718 11.4252 137.033 11.4976C137.216 11.7247 137.145 17.138 137.123 17.8318C137.021 21.0499 132.72 21.4803 131.338 18.846C131.252 18.6811 131.355 18.5059 131.43 18.3684L131.782 18.2705C132.705 18.396 132.519 19.7199 134.151 19.6572C136.369 19.5716 136.147 17.7735 136.136 16.1498C135.73 16.8112 135.251 17.3303 134.479 17.5662C133.816 17.7627 133.103 17.6892 132.495 17.3617C130.219 16.1455 130.25 12.2141 133.301 11.3957ZM133.438 12.3315C132.12 12.8692 131.594 14.2024 132.141 15.5058C132.347 16.0089 132.75 16.4064 133.257 16.6069C133.679 16.7739 134.196 16.7563 134.635 16.6689C137.11 15.7176 136.482 11.9489 133.438 12.3315Z" fill="black"/>
<path fill-rule="evenodd" clip-rule="evenodd" d="M126.225 23.7432C128.127 23.6697 132.32 23.171 132.397 26.0375C132.454 28.1516 130.996 28.6836 129.162 28.7758L127.375 28.781L127.362 31.9653C127.014 31.9879 126.55 31.9648 126.191 31.956C126.114 30.6544 126.177 28.9394 126.159 27.6094C126.146 26.6233 126.112 24.6571 126.225 23.7432ZM127.364 24.7356V27.7686C128.401 27.7834 129.94 27.9347 130.771 27.372C131.267 26.6449 131.505 25.5847 130.597 25.0792C129.688 24.5735 128.37 24.7166 127.364 24.7356Z" fill="black"/>
<path fill-rule="evenodd" clip-rule="evenodd" d="M104.751 25.7194C107.685 25.5779 108.473 28.9371 107.149 31.0569C106.703 31.7712 105.919 31.9931 105.127 32.1176C102.122 32.2207 101.308 29.0319 102.681 26.75C103.093 26.0645 103.982 25.8208 104.751 25.7194ZM104.566 26.6501C104.051 26.8443 103.651 27.0572 103.453 27.6041C102.887 29.169 103.149 31.3092 105.25 31.1796C107.235 30.5434 107.159 26.5038 104.566 26.6501Z" fill="black"/>
<path fill-rule="evenodd" clip-rule="evenodd" d="M74.4471 25.7219C76.008 25.8208 77.0786 26.4571 77.3086 28.0777C77.6169 30.2487 76.9764 31.775 74.737 32.1256C72.5296 32.1836 71.5104 30.5517 71.7062 28.5096C71.8771 26.7269 72.7186 25.9275 74.4471 25.7219ZM74.1949 26.6478C73.6742 26.8554 73.2701 27.0785 73.078 27.6392C72.5415 29.2079 72.8017 31.3159 74.8943 31.1872C76.8488 30.574 76.839 26.5381 74.1949 26.6478Z" fill="black"/>
<path fill-rule="evenodd" clip-rule="evenodd" d="M54.3815 23.7246C54.793 23.7085 55.246 23.7271 55.6616 23.7359C56.0577 24.5433 58.863 31.5913 58.5973 31.9512C57.4038 32.1793 57.2518 30.9989 56.9322 30.0999L55.8055 30.121L53.0625 30.1127C52.8851 30.564 52.6996 31.0343 52.5361 31.4901C52.3508 32.0064 51.5697 32.1961 51.2943 31.7624C51.4295 30.9221 53.9507 24.4515 54.3815 23.7246ZM54.9533 25.044L53.4207 29.0648C53.9967 29.0811 54.5829 29.1042 55.1584 29.0952L56.5937 29.0914C56.3879 28.5375 55.235 25.2664 54.9533 25.044Z" fill="black"/>
<path fill-rule="evenodd" clip-rule="evenodd" d="M90.4591 25.718C93.8202 25.6904 93.0604 28.2542 93.1404 30.622C93.1517 30.9503 93.1948 31.6355 93.0458 31.9134C92.8165 32.0286 92.3119 32.0185 92.0904 31.8893L92.0416 31.4518C91.8285 31.441 91.4344 31.6807 91.226 31.7906C89.8836 32.4981 88.6854 32.1438 87.9158 30.8554C87.3651 27.8624 91.4291 28.835 92.0824 27.7447C92.0998 26.8708 90.6587 26.0659 89.8979 26.8502C89.5015 27.2588 88.7599 27.8981 88.2928 27.2726C88.2132 26.2943 89.7248 25.8362 90.4591 25.718ZM91.8718 28.9926C91.3083 29.0524 90.8434 29.1156 90.2867 29.227C89.3228 29.4201 88.262 30.1682 89.4497 31.0429C90.4785 31.3622 91.5541 31.2533 91.9186 29.9926C92.0044 29.6956 92.0776 29.2767 91.9478 28.9944L91.8718 28.9926Z" fill="black"/>
<path fill-rule="evenodd" clip-rule="evenodd" d="M102.795 11.3917C105.022 11.2609 106.281 12.509 106.142 14.7171C104.485 14.7579 102.824 14.7287 101.151 14.7731C101.401 15.9169 101.949 16.8667 103.34 16.8431C103.97 16.8325 104.434 16.4639 104.838 16.0016C104.882 15.8984 105.001 15.5718 105.075 15.5338C105.431 15.3488 105.832 15.3692 106.054 15.688C106.066 16.4962 104.623 17.508 103.869 17.626C100.941 18.0843 99.3275 15.1477 100.699 12.719C101.156 11.9087 101.924 11.5915 102.795 11.3917ZM102.871 12.2345C101.65 12.5645 101.44 13.0653 101.166 14.2203L103.719 14.2298C104.065 14.2345 104.782 14.2805 105.066 14.1571C105.159 14.0485 105.303 13.9021 105.252 13.7568C104.852 12.618 103.907 12.1849 102.871 12.2345Z" fill="black"/>
<path fill-rule="evenodd" clip-rule="evenodd" d="M114.13 11.3881C114.956 11.3672 115.45 11.427 116.169 11.8681C116.886 12.3076 117.877 13.8058 117.349 14.6004C116.838 14.8347 113.279 14.7463 112.414 14.7649C112.447 14.9356 112.486 15.1053 112.529 15.2739C113.001 17.0605 115.256 17.4884 116.253 15.6903C116.26 15.6573 116.328 15.5367 116.349 15.4985C116.612 15.3818 117.106 15.4382 117.418 15.4527C116.356 18.5865 112.228 18.327 111.551 15.2558C111.13 13.3462 112.152 11.7675 114.13 11.3881ZM114.045 12.2435C112.896 12.6161 112.702 13.0816 112.404 14.2123L114.772 14.2302L116.468 14.2216C116.165 12.6891 115.67 12.1141 114.045 12.2435Z" fill="black"/>
<path d="M82.0249 9.66757C84 9.56538 85.3077 10.2702 86.0046 12.1482L84.9597 12.1909C83.6882 9.91265 80.6584 10.0593 79.8173 12.5303C78.9125 15.1878 81.2671 17.7107 83.9331 16.3935C84.8144 15.9581 85.1268 14.9962 85.3825 14.1323L84.2781 14.1214C83.657 14.0985 82.8731 14.2804 82.3878 14.0265C82.2006 13.7519 82.2487 13.8632 82.2333 13.5061C82.5184 13.2828 85.5644 13.3366 86.0169 13.3872C86.6421 13.98 85.95 15.4549 85.5511 16.0326C84.9868 16.8502 84.1176 17.4083 83.1378 17.5825C78.0111 18.5104 76.6226 10.5682 82.0249 9.66757Z" fill="black"/>
<path d="M76.6308 9.72794C77.0063 9.7445 77.4941 9.72477 77.8786 9.72009C76.6807 11.0228 75.4706 12.3143 74.2485 13.5946L76.233 15.7723L77.8509 17.5609L76.6115 17.571L73.3239 13.918C73.3327 14.8001 73.378 16.4037 73.3164 17.3448C73.2572 17.4141 73.2074 17.4726 73.1669 17.5205C72.8905 17.6272 72.579 17.6505 72.3525 17.4269C72.2473 16.5329 72.2908 15.2651 72.2946 14.3423L72.3039 9.73628C72.6814 9.72142 72.8324 9.71412 73.2107 9.77272C73.4422 10.0102 73.3244 12.8402 73.3186 13.3554C74.4295 12.1666 75.5255 10.9293 76.6308 9.72794Z" fill="black"/>
<path d="M53.4371 9.65955C54.4941 9.59521 55.5682 9.67274 56.254 10.5986C56.403 10.8001 56.6331 11.214 56.5958 11.4657C55.6948 12.1991 55.2388 10.8815 54.7873 10.5882C53.8969 10.0699 52.3552 10.784 52.6871 11.9054C53.1515 13.4735 56.623 13.1785 56.8611 15.0319C57.0554 16.545 56.0381 17.394 54.7146 17.6405C54.22 17.6405 53.7935 17.6415 53.3234 17.461C52.7614 17.2449 51.3374 16.3221 51.7066 15.6083C52.6605 14.9236 52.8691 16.2686 53.5524 16.6469C54.2621 17.1104 55.2952 16.7938 55.6923 16.033C56.4335 14.4926 53.639 14.0087 52.8162 13.5276C50.7838 12.3389 51.2463 10.2737 53.4371 9.65955Z" fill="black"/>
<path d="M65.1342 9.33081L66.1426 9.33352L66.1303 12.7359C67.5273 10.7494 69.9961 10.7666 70.6618 13.337C70.8186 13.942 70.8237 16.9065 70.6774 17.4785L70.5481 17.5505C70.282 17.5573 70.0362 17.5902 69.8064 17.4579C69.6549 17.1726 69.7249 14.9763 69.7251 14.4706C69.6957 12.883 69.0592 11.8391 67.2112 12.3419C65.4057 12.8332 66.5397 16.4053 66.0457 17.5069C65.7286 17.6437 65.4976 17.6417 65.2205 17.4253C65.0005 17.097 65.1347 10.3143 65.1342 9.33081Z" fill="black"/>
<path d="M112.133 25.715C114.144 25.652 114.814 27.3333 114.732 29.0679C114.709 29.5651 114.802 31.6385 114.544 31.9492C114.255 32.0328 114.169 32.075 113.894 31.9711C112.705 31.0906 115.025 26.0217 111.318 26.791C109.499 27.764 110.895 31.441 110.16 31.95C109.815 31.9633 109.647 31.9864 109.314 31.8707C109.042 31.4877 109.246 27.0593 109.219 26.2927C109.211 26.0623 109.221 26.0435 109.375 25.8939C110.551 25.6321 110.178 26.1858 110.371 26.4639C111.104 26.0176 111.273 25.8385 112.133 25.715Z" fill="black"/>
<path d="M98.3891 9.72021L99.4967 9.73839L99.169 10.6544L96.6 17.5657L95.3115 17.5617L92.4449 9.73363L93.5468 9.7242L95.9658 16.4306L98.3891 9.72021Z" fill="black"/>
<path d="M61.7023 25.7164C62.3433 25.6873 63.0213 25.8462 63.575 26.1722C63.8554 26.3371 64.472 26.9708 64.2648 27.3057C63.6616 27.5029 62.3891 26.5768 61.7288 26.5657C61.2221 26.5572 60.7377 27.0351 60.7535 27.5386C61.1356 28.6517 64.3824 28.3447 64.5578 30.0128C64.7211 31.5641 63.4059 32.0056 62.1329 32.1371C61.3777 32.1294 59.0643 31.5707 59.6293 30.4801C60.4852 30.0354 61.0359 31.262 61.8362 31.268C62.528 31.273 63.4331 31.0945 63.4361 30.2244C63.0218 29.119 59.8604 29.4222 59.6434 27.8187C59.4657 26.5052 60.5779 25.9205 61.7023 25.7164Z" fill="black"/>
<path d="M67.8416 25.7168C68.685 25.7087 70.307 26.2348 70.4321 27.1629L70.2753 27.2977C69.2208 27.5668 69.1991 26.7887 68.2733 26.5995C67.67 26.476 66.8596 26.8219 66.7766 27.4832C67.0356 28.6099 70.4653 28.324 70.6125 30.0322C70.7467 31.5898 69.5276 31.9723 68.2637 32.135C67.3212 32.1332 65.9196 31.8504 65.5915 30.7199C65.5562 30.5985 65.5935 30.5904 65.6647 30.4928C66.3661 30.2885 67.5444 31.2771 68.2899 31.2786C68.8287 31.2799 69.5349 30.8427 69.5047 30.2463C69.1247 29.1312 65.9239 29.4145 65.7168 27.8245C65.5348 26.4255 66.7177 25.8962 67.8416 25.7168Z" fill="black"/>
<path d="M124.091 11.386C124.393 11.3608 124.66 11.3441 124.962 11.3762C125.546 11.4364 126.081 11.7309 126.444 12.1922C127.265 13.2269 127.122 16.1701 126.969 17.4776C126.787 17.6061 126.251 17.5671 125.995 17.5671C125.985 15.4225 126.807 11.6107 123.461 12.3568C121.683 13.3871 122.863 15.7774 122.329 17.3357C122.222 17.6505 121.691 17.6598 121.44 17.4821C121.349 16.7668 121.341 12.133 121.455 11.5406C121.72 11.4101 122.122 11.445 122.429 11.4462C122.427 11.7641 122.398 12.1051 122.512 12.3968C122.82 12.3207 123.045 11.9161 123.347 11.7286C123.583 11.5822 123.836 11.4874 124.091 11.386Z" fill="black"/>
<path d="M81.1852 25.7192C82.2505 25.735 83.5866 26.1328 83.9203 27.308C83.9701 27.4834 84.0127 27.7176 83.9143 27.8782C83.6925 27.9726 83.3649 27.949 83.1278 27.943C82.8769 27.9367 82.6403 27.3075 82.4211 27.0816C82.2006 26.8266 81.6661 26.6203 81.3359 26.6004C79.2244 26.4727 79.0206 31.3544 81.3019 31.1777C81.9648 31.1265 82.1012 31.0765 82.5563 30.6524C82.8089 30.1474 82.9705 29.7606 83.6259 29.8492C83.7678 29.984 83.8921 30.1185 83.8828 30.312C83.7663 32.2411 80.8062 32.5483 79.5694 31.5755C78.1163 30.4325 78.1505 27.2851 79.6802 26.2104C80.1845 25.856 80.5766 25.794 81.1852 25.7192Z" fill="black"/>
<path d="M148.506 11.3897C152.246 11.0427 151.474 15.021 151.457 17.5544L150.45 17.5574C150.446 15.46 151.22 11.5457 147.889 12.3616C147.867 12.3752 147.845 12.3889 147.824 12.4028C146.211 13.4372 147.159 15.9692 146.834 17.4542C146.627 17.599 146.117 17.5353 145.885 17.4532C145.867 17.2916 145.854 17.1294 145.847 16.967C145.791 15.5843 145.848 13.0893 145.865 11.6095C145.913 11.5583 145.954 11.5143 145.988 11.4776C146.279 11.459 146.513 11.418 146.776 11.547C146.953 11.8407 146.886 12.2981 146.888 12.694C147.391 11.9153 147.664 11.7324 148.506 11.3897Z" fill="black"/>
<path d="M139.616 11.4453C139.604 12.6728 139.155 16.4629 140.75 16.7384C144.303 17.3518 142.818 13.2761 143.244 11.5284C143.46 11.3641 143.881 11.4299 144.107 11.5569C144.319 11.9177 144.224 12.6285 144.207 13.0905C144.212 13.8873 144.274 16.8143 144.166 17.4346L144.033 17.5167C143.806 17.5342 143.446 17.5967 143.265 17.4883C143.131 17.1839 143.193 16.653 143.21 16.3013C142.523 17.3545 141.692 17.851 140.391 17.6093C137.988 17.163 138.585 13.3417 138.603 11.4514L139.616 11.4453Z" fill="black"/>
<path d="M60.5664 11.3874C62.3598 11.3302 63.2733 11.9638 63.828 13.6485C62.0457 13.7884 62.6381 12.6461 61.6614 12.3795C57.7414 11.3097 58.1365 18.3279 62.0802 16.4249C63.0035 15.5866 62.2145 15.2659 63.8489 15.3766C62.2576 19.7048 56.6602 17.3546 58.0889 13.2826C58.4974 12.1189 59.3954 11.5905 60.5664 11.3874Z" fill="black"/>
<path d="M119.529 23.7402C119.844 23.7211 120.331 23.6704 120.588 23.8361C120.812 24.4003 120.698 29.9948 120.696 30.9787C121.279 30.9513 124.54 30.8384 124.822 31.0901C124.916 31.4013 124.864 31.6531 124.829 31.9748C123.057 31.9987 121.285 31.9962 119.513 31.9676C119.428 29.9032 119.393 25.7511 119.529 23.7402Z" fill="black"/>
<path d="M95.3546 23.6291C95.6581 23.616 96.0155 23.5605 96.2611 23.7176C96.6283 24.1506 96.4547 25.1628 96.4499 25.8483C97.0805 25.8375 97.9478 25.6984 98.2896 26.3342L98.1854 26.5257C97.604 26.9413 97.1664 26.8341 96.4421 26.8191C96.439 27.8848 96.3585 29.1977 96.5488 30.2415C96.845 31.8664 97.8401 30.1886 98.4109 31.4822C98.3512 31.6533 98.3077 31.7306 98.2224 31.888C97.9752 32.0454 97.5912 31.9912 97.2987 32.002C94.7053 32.0978 95.3226 28.6711 95.3496 26.8231C94.8034 26.8374 94.3444 26.9511 94.1021 26.3733C94.2495 25.7102 94.777 25.839 95.3395 25.8525L95.3546 23.6291Z" fill="black"/>
<path d="M110.303 11.3687C110.473 11.362 110.525 11.3782 110.684 11.4152C110.869 11.6583 110.786 12.1168 110.765 12.4453C107.368 12.6783 108.894 15.0817 108.461 17.279C108.391 17.6372 107.772 17.6465 107.512 17.4919L107.488 17.2198C107.51 15.4508 107.429 13.6165 107.503 11.8455C107.512 11.616 107.505 11.5934 107.679 11.4687C107.95 11.4503 108.222 11.3959 108.44 11.5454C108.603 11.7908 108.519 12.2677 108.495 12.5874C109.115 11.8631 109.395 11.6341 110.303 11.3687Z" fill="black"/>
<path d="M99.4776 25.8824C99.8005 25.8575 100.248 25.8761 100.582 25.8816C100.592 27.6664 100.675 30.2307 100.554 31.9771C100.215 31.9833 99.8702 32.02 99.5614 31.889C99.3304 31.5421 99.4306 26.6095 99.4776 25.8824Z" fill="black"/>
<path d="M85.4175 25.8899C85.7721 25.8633 86.0616 25.8131 86.3947 25.9383C86.6517 26.2732 86.5301 31.2269 86.504 31.9658C86.1345 31.9859 85.8876 32.0207 85.533 31.9018C85.2834 31.5524 85.3936 26.6431 85.4175 25.8899Z" fill="black"/>
<path d="M118.759 11.4603C119.062 11.4532 119.477 11.4004 119.718 11.557C119.837 12.091 119.772 16.7238 119.769 17.5659C119.441 17.5677 119.096 17.6046 118.812 17.4552C118.691 16.9615 118.755 12.2755 118.759 11.4603Z" fill="black"/>
<path d="M128.58 11.4581L129.597 11.4447L129.591 17.5606C129.221 17.5692 129.048 17.5641 128.682 17.518C128.498 17.2971 128.579 12.1654 128.58 11.4581Z" fill="black"/>
<path d="M86.5677 13.0846C87.3023 13.0775 90.426 13.0074 90.9699 13.1207C91.0945 13.3385 91.0517 13.6634 91.0439 13.9245C90.265 13.9277 87.2585 13.9875 86.6802 13.8814C86.5239 13.6835 86.5659 13.3494 86.5677 13.0846Z" fill="black"/>
<path d="M99.3877 23.5449C99.9135 23.503 100.238 23.3983 100.619 23.7196C100.75 24.0105 100.675 24.3662 100.641 24.6927C100.263 24.7165 99.7761 24.7002 99.3892 24.6975C99.3583 24.2961 99.3744 23.9463 99.3877 23.5449Z" fill="black"/>
<path d="M85.3424 23.5529L85.3965 23.5476C85.93 23.4982 86.1621 23.4086 86.5481 23.7283C86.6808 24.0242 86.6096 24.3661 86.5768 24.6961C86.078 24.724 85.7836 24.7975 85.3844 24.5373C85.2188 24.2479 85.3041 23.8952 85.3424 23.5529Z" fill="black"/>
<path d="M128.834 9.07178C129.059 8.97489 129.32 9.00992 129.512 9.16293C129.704 9.31594 129.796 9.56194 129.751 9.80277C129.705 10.0435 129.531 10.2399 129.296 10.3134C128.959 10.4193 128.597 10.2427 128.474 9.91172C128.35 9.58075 128.509 9.21146 128.834 9.07178Z" fill="black"/>
<path d="M119.019 9.06763C119.24 8.97879 119.493 9.01598 119.68 9.16492C119.866 9.31383 119.958 9.55147 119.919 9.7867C119.881 10.022 119.719 10.2183 119.494 10.3007C119.155 10.4254 118.777 10.2549 118.647 9.91793C118.517 9.5809 118.683 9.2022 119.019 9.06763Z" fill="black"/>
</g>
<defs>
<clipPath id="clip0_27_1262">
<rect width="159" height="41" fill="white"/>
</clipPath>
</defs>
</svg>
