<svg width="140" height="41" viewBox="0 0 140 41" fill="none" xmlns="http://www.w3.org/2000/svg">
<g clip-path="url(#clip0_27_1223)">
<path d="M42.6455 24.2963C42.609 23.8468 42.3694 23.7174 42.1662 23.7174C41.8759 23.7174 41.7161 23.9046 41.7161 24.2316C41.7161 25.1221 43.5457 25.5489 43.5457 26.9683C43.5457 27.8293 42.9647 28.3077 42.1225 28.3077C41.2875 28.3077 40.8084 27.6421 40.7719 26.8594L41.629 26.7368C41.6649 27.2652 41.8759 27.5263 42.1662 27.5263C42.4787 27.5263 42.6886 27.3589 42.6886 27.0478C42.6886 26.0125 40.8591 25.7374 40.8591 24.2384C40.8591 23.4064 41.3672 22.9348 42.2533 22.9348C42.9869 22.9348 43.4222 23.4637 43.5025 24.2016L42.6455 24.2963Z" fill="black"/>
<path d="M46.4335 25.6725V25.5709C46.4335 25.1225 46.2736 24.933 45.9833 24.933C45.6931 24.933 45.5331 25.1225 45.5331 25.5709V27.004C45.5331 27.4535 45.6931 27.6419 45.9833 27.6419C46.2736 27.6419 46.4335 27.4535 46.4335 27.004V26.7588H47.2467V26.8597C47.2467 27.7139 46.9127 28.3077 45.9833 28.3077C45.054 28.3077 44.7199 27.7139 44.7199 26.8597V25.7156C44.7199 24.8615 45.054 24.2672 45.9833 24.2672C46.8984 24.2672 47.232 24.8393 47.2467 25.6725H46.4335Z" fill="black"/>
<path d="M48.566 28.2358V23.0074H49.3787V24.7022C49.6763 24.4411 49.8504 24.2674 50.3222 24.2674C50.7519 24.2674 51.0051 24.5785 51.0051 25.0859V28.2358H50.1924V25.2164C50.1924 25.0207 50.0763 24.9332 49.9011 24.9332C49.728 24.9332 49.5676 25.0427 49.3787 25.18V28.2358H48.566Z" fill="black"/>
<path d="M53.6893 24.347H54.2921L54.7279 26.7728H54.7423L55.185 24.3391H55.9692L55.0689 28.2359H54.4156L53.9728 25.7733H53.958L53.4276 28.2359H52.7748L52.0196 24.3391H52.8044L53.1595 26.7728H53.1743L53.6893 24.347Z" fill="black"/>
<path d="M58.6542 25.7734V25.5707C58.6542 25.1224 58.4937 24.9334 58.2034 24.9334C57.9137 24.9334 57.7538 25.1224 57.7538 25.5707V25.7734H58.6542ZM59.4663 26.4403H57.7538V27.0043C57.7538 27.4533 57.9137 27.6417 58.2034 27.6417C58.4937 27.6417 58.6542 27.4533 58.6542 27.0043V26.9176H59.4663C59.4526 27.7433 59.1106 28.3075 58.2034 28.3075C57.2741 28.3075 56.94 27.7139 56.94 26.8597V25.7155C56.94 24.8613 57.2741 24.2677 58.2034 24.2677C59.1322 24.2677 59.4663 24.8613 59.4663 25.7155V26.4403Z" fill="black"/>
<path d="M60.7941 24.3392H61.6068V28.2354H60.7941V24.3392ZM60.7941 23.0077H61.6068V23.7461H60.7941V23.0077Z" fill="black"/>
<path d="M62.9055 25.0059V24.339H65.1923V25.0059L63.6749 27.569H65.1923V28.2359H62.8036V27.569L64.2919 25.0059H62.9055Z" fill="black"/>
<path d="M68.0523 25.7734V25.5707C68.0523 25.1224 67.8919 24.9334 67.6016 24.9334C67.3108 24.9334 67.1514 25.1224 67.1514 25.5707V25.7734H68.0523ZM68.8645 26.4403H67.1514V27.0043C67.1514 27.4533 67.3108 27.6417 67.6016 27.6417C67.8919 27.6417 68.0523 27.4533 68.0523 27.0043V26.9176H68.8645C68.8503 27.7433 68.5088 28.3075 67.6016 28.3075C66.6723 28.3075 66.3382 27.7139 66.3382 26.8597V25.7155C66.3382 24.8613 66.6723 24.2677 67.6016 24.2677C68.5304 24.2677 68.8645 24.8613 68.8645 25.7155V26.4403Z" fill="black"/>
<path d="M70.1844 28.2358V24.3395H70.9611V24.7958H70.9755C71.1712 24.4627 71.5127 24.2673 71.8985 24.2673H72.0648V25.1142C71.9201 25.0785 71.7819 25.0348 71.5423 25.0348C71.2663 25.0348 70.9971 25.2084 70.9971 25.5558V28.2358H70.1844Z" fill="black"/>
<path d="M73.1887 24.3392H74.0024V28.2354H73.1887V24.3392ZM73.1887 23.0077H74.0024V23.7461H73.1887V23.0077Z" fill="black"/>
<path d="M76.8535 25.4185C76.7954 25.1068 76.6504 24.9331 76.3896 24.9331C76.1797 24.9331 76.034 25.0426 76.034 25.2448C76.034 25.8531 77.5587 26.099 77.5587 27.2573C77.5587 27.9526 77.0799 28.3078 76.4175 28.3078C75.7067 28.3078 75.3009 27.9026 75.1774 27.2215L75.8882 27.0258C75.9394 27.3521 76.0555 27.6421 76.4255 27.6421C76.636 27.6421 76.7886 27.5183 76.7886 27.301C76.7886 26.6273 75.2646 26.3741 75.2646 25.31C75.2646 24.6942 75.7437 24.2675 76.3526 24.2675C76.9911 24.2675 77.4197 24.6942 77.5443 25.3027L76.8535 25.4185Z" fill="black"/>
<path d="M80.4467 25.6725V25.5709C80.4467 25.1225 80.2869 24.933 79.996 24.933C79.7065 24.933 79.5465 25.1225 79.5465 25.5709V27.004C79.5465 27.4535 79.7065 27.6419 79.996 27.6419C80.2869 27.6419 80.4467 27.4535 80.4467 27.004V26.7588H81.2594V26.8597C81.2594 27.7139 80.926 28.3077 79.996 28.3077C79.0667 28.3077 78.7326 27.7139 78.7326 26.8597V25.7156C78.7326 24.8615 79.0667 24.2672 79.996 24.2672C80.9111 24.2672 81.2452 24.8393 81.2594 25.6725H80.4467Z" fill="black"/>
<path d="M82.5788 28.2358V23.0074H83.3927V24.7022C83.6903 24.4411 83.8645 24.2674 84.3362 24.2674C84.7654 24.2674 85.0192 24.5785 85.0192 25.0859V28.2358H84.2054V25.2164C84.2054 25.0207 84.0898 24.9332 83.9152 24.9332C83.741 24.9332 83.5811 25.0427 83.3927 25.18V28.2358H82.5788Z" fill="black"/>
<path d="M88.0514 25.7734V25.5707C88.0514 25.1224 87.8916 24.9334 87.6019 24.9334C87.3116 24.9334 87.1511 25.1224 87.1511 25.5707V25.7734H88.0514ZM88.8653 26.4403H87.1511V27.0043C87.1511 27.4533 87.3116 27.6417 87.6019 27.6417C87.8916 27.6417 88.0514 27.4533 88.0514 27.0043V26.9176H88.8653C88.8504 27.7433 88.5096 28.3075 87.6019 28.3075C86.6731 28.3075 86.3384 27.7139 86.3384 26.8597V25.7155C86.3384 24.8613 86.6731 24.2677 87.6019 24.2677C88.5312 24.2677 88.8653 24.8613 88.8653 25.7155V26.4403Z" fill="black"/>
<path d="M94.0608 24.2963C94.024 23.8468 93.7849 23.7174 93.5812 23.7174C93.2915 23.7174 93.1315 23.9046 93.1315 24.2316C93.1315 25.1221 94.9607 25.5489 94.9607 26.9683C94.9607 27.8293 94.3796 28.3077 93.5368 28.3077C92.7025 28.3077 92.2245 27.6421 92.1874 26.8594L93.0433 26.7368C93.0798 27.2652 93.2915 27.5263 93.5812 27.5263C93.893 27.5263 94.1036 27.3589 94.1036 27.0478C94.1036 26.0125 92.2739 25.7374 92.2739 24.2384C92.2739 23.4064 92.7816 22.9348 93.6676 22.9348C94.4018 22.9348 94.8372 23.4637 94.9174 24.2016L94.0608 24.2963Z" fill="black"/>
<path d="M95.8583 25.006V24.3391H96.3085V23.2897H97.1224V24.3391H97.667V25.006H97.1224V27.2511C97.1224 27.4538 97.2094 27.5691 97.3983 27.5691H97.667V28.2643C97.5577 28.2939 97.4632 28.308 97.2601 28.308C96.6494 28.308 96.3085 28.0254 96.3085 27.4316V25.006H95.8583Z" fill="black"/>
<path d="M101.216 24.3392V28.2355H100.446V27.8444C100.105 28.1344 99.9306 28.3075 99.4583 28.3075C99.0304 28.3075 98.7759 27.9965 98.7759 27.4897V24.3392H99.5892V27.3587C99.5892 27.5544 99.7053 27.6418 99.8801 27.6418C100.054 27.6418 100.214 27.5323 100.403 27.3949V24.3392H101.216Z" fill="black"/>
<path d="M104.205 25.1364C104.045 25.0207 103.9 24.9332 103.741 24.9332C103.524 24.9332 103.348 25.049 103.348 25.5632V27.0122C103.348 27.5264 103.524 27.6422 103.741 27.6422C103.9 27.6422 104.045 27.5542 104.205 27.4384V25.1364ZM104.249 28.2358V27.8295H104.234C103.965 28.17 103.769 28.3079 103.363 28.3079C102.855 28.3079 102.536 27.9311 102.536 27.2216V25.3538C102.536 24.6443 102.855 24.2675 103.363 24.2675C103.719 24.2675 103.886 24.4127 104.205 24.6728V23.0076H105.019V28.2358H104.249Z" fill="black"/>
<path d="M106.389 24.3392H107.201V28.2354H106.389V24.3392ZM106.389 23.0077H107.201V23.7461H106.389V23.0077Z" fill="black"/>
<path d="M110.243 25.7734V25.5707C110.243 25.1224 110.083 24.9334 109.793 24.9334C109.503 24.9334 109.343 25.1224 109.343 25.5707V25.7734H110.243ZM111.056 26.4403H109.343V27.0043C109.343 27.4533 109.503 27.6417 109.793 27.6417C110.083 27.6417 110.243 27.4533 110.243 27.0043V26.9176H111.056C111.042 27.7433 110.701 28.3075 109.793 28.3075C108.864 28.3075 108.53 27.7139 108.53 26.8597V25.7155C108.53 24.8613 108.864 24.2677 109.793 24.2677C110.722 24.2677 111.056 24.8613 111.056 25.7155V26.4403Z" fill="black"/>
<path d="M112.375 28.2358V24.3395H113.146V24.7305C113.486 24.441 113.661 24.2673 114.132 24.2673C114.561 24.2673 114.815 24.5784 114.815 25.0858V28.2358H114.002V25.2163C114.002 25.0206 113.886 24.9331 113.711 24.9331C113.537 24.9331 113.377 25.0427 113.189 25.18V28.2358H112.375Z" fill="black"/>
<path d="M117.66 25.4185C117.601 25.1068 117.456 24.9331 117.195 24.9331C116.984 24.9331 116.839 25.0426 116.839 25.2448C116.839 25.8531 118.364 26.099 118.364 27.2573C118.364 27.9526 117.885 28.3078 117.224 28.3078C116.512 28.3078 116.106 27.9026 115.982 27.2215L116.693 27.0258C116.744 27.3521 116.861 27.6421 117.231 27.6421C117.442 27.6421 117.594 27.5183 117.594 27.301C117.594 26.6273 116.069 26.3741 116.069 25.31C116.069 24.6942 116.548 24.2675 117.158 24.2675C117.798 24.2675 118.226 24.6942 118.349 25.3027L117.66 25.4185Z" fill="black"/>
<path d="M119.262 25.006V24.3391H119.713V23.2897H120.525V24.3391H121.07V25.006H120.525V27.2511C120.525 27.4538 120.613 27.5691 120.801 27.5691H121.07V28.2643C120.961 28.2939 120.867 28.308 120.663 28.308C120.053 28.308 119.713 28.0254 119.713 27.4316V25.006H119.262Z" fill="black"/>
<path d="M122.187 24.3392H123V28.2354H122.187V24.3392ZM122.187 23.0077H123V23.7461H122.187V23.0077Z" fill="black"/>
<path d="M124.531 25.0059H124.053V24.339H124.531V23.8549C124.531 23.2249 124.865 22.9349 125.439 22.9349H125.846V23.6018H125.614C125.418 23.6018 125.345 23.6733 125.345 23.8617V24.339H125.809V25.0059H125.345V28.2359H124.531V25.0059Z" fill="black"/>
<path d="M126.651 25.006V24.3391H127.101V23.2897H127.914V24.3391H128.459V25.006H127.914V27.2511C127.914 27.4538 128.002 27.5691 128.19 27.5691H128.459V28.2643C128.35 28.2939 128.256 28.308 128.052 28.308C127.442 28.308 127.101 28.0254 127.101 27.4316V25.006H126.651Z" fill="black"/>
<path d="M132.009 24.3392V28.2355H131.238V27.8444C130.898 28.1344 130.723 28.3075 130.251 28.3075C129.823 28.3075 129.569 27.9965 129.569 27.4897V24.3392H130.382V27.3587C130.382 27.5544 130.498 27.6418 130.673 27.6418C130.846 27.6418 131.007 27.5323 131.195 27.3949V24.3392H132.009Z" fill="black"/>
<path d="M133.371 28.2358V24.3395H134.14V24.7305C134.482 24.441 134.656 24.2673 135.128 24.2673C135.557 24.2673 135.811 24.5784 135.811 25.0858V28.2358H134.997V25.2163C134.997 25.0206 134.882 24.9331 134.707 24.9331C134.533 24.9331 134.373 25.0427 134.185 25.18V28.2358H133.371Z" fill="black"/>
<path d="M138.626 25.7522C138.626 25.0926 138.538 24.9331 138.22 24.9331C137.958 24.9331 137.813 25.0926 137.813 25.7522C137.813 26.4099 137.958 26.5695 138.22 26.5695C138.538 26.5695 138.626 26.4099 138.626 25.7522ZM139.149 28.5978C139.149 28.3952 139.004 28.3078 138.459 28.3078C137.914 28.3078 137.769 28.3952 137.769 28.5978C137.769 28.7999 137.914 28.8872 138.459 28.8872C139.004 28.8872 139.149 28.7999 139.149 28.5978ZM139.875 24.9412C139.832 24.9331 139.788 24.9331 139.744 24.9331C139.599 24.9331 139.469 24.9627 139.352 25.0569C139.41 25.26 139.439 25.5133 139.439 25.6726C139.439 26.8594 139.033 27.2363 138.205 27.2363H137.944C137.857 27.2573 137.784 27.3231 137.784 27.4168C137.784 27.9457 139.875 27.1636 139.875 28.5388C139.875 29.2057 139.25 29.4656 138.205 29.4656C137.392 29.4656 136.913 29.2489 136.913 28.8437C136.913 28.5388 137.16 28.3004 137.442 28.2357V28.221C137.225 28.1341 137.072 27.9814 137.072 27.7283C137.072 27.4604 137.348 27.2215 137.567 27.0984C137.16 26.8163 137.043 26.6132 137.043 25.7005C137.043 24.629 137.392 24.2675 138.307 24.2675C138.656 24.2675 138.953 24.3906 139.207 24.6879C139.425 24.3691 139.534 24.2675 139.875 24.2675V24.9412Z" fill="black"/>
<path fill-rule="evenodd" clip-rule="evenodd" d="M5.04504 5.0746L10.1338 16.4723L21.5623 11.3977L16.4736 0L5.04504 5.0746Z" fill="black"/>
<path fill-rule="evenodd" clip-rule="evenodd" d="M19.4263 29.4792L24.5154 40.877L35.9435 35.8021L30.8544 24.4044L19.4263 29.4792Z" fill="black"/>
<path fill-rule="evenodd" clip-rule="evenodd" d="M24.476 10.1145L29.5647 21.5122L40.9931 16.4376L35.9045 5.03992L24.476 10.1145Z" fill="black"/>
<path fill-rule="evenodd" clip-rule="evenodd" d="M0 24.4479L5.08849 35.8455L16.5171 30.771L11.4286 19.3734L0 24.4479Z" fill="black"/>
</g>
<defs>
<clipPath id="clip0_27_1223">
<rect width="140" height="41" fill="white"/>
</clipPath>
</defs>
</svg>
