<svg width="135" height="41" viewBox="0 0 135 41" fill="none" xmlns="http://www.w3.org/2000/svg">
<g clip-path="url(#clip0_27_1202)">
<path d="M35.5154 35.6456V37.9022H32.5973V35.6456H31.8484V40.8622H32.5973V38.5906H35.5154V40.8622H36.271V35.6456H35.5154Z" fill="black"/>
<path d="M39.8927 36.7928C39.4499 36.3646 39.0214 36.2496 38.6703 36.2496C38.1584 36.2496 37.8457 36.5254 37.8457 36.8546C37.8457 37.2978 38.1511 37.4812 39.1438 38.0628C39.3651 38.1928 39.6173 38.3762 39.816 38.6446C39.9768 38.8512 40.099 39.1336 40.099 39.5086C40.099 40.327 39.5106 40.932 38.5862 40.932C38.0746 40.932 37.5861 40.7562 37.1809 40.4496V39.5012C37.3339 39.692 37.8 40.2662 38.5862 40.2662C38.9756 40.2662 39.3958 40.0212 39.3958 39.5778C39.3958 39.1412 38.9533 38.8204 38.7086 38.6746C37.8839 38.1778 37.6468 38.032 37.4171 37.7412C37.2574 37.5354 37.1575 37.2904 37.1575 36.9612C37.1575 36.1728 37.7532 35.5762 38.6937 35.5762C39.1212 35.5762 39.534 35.7062 39.8927 35.9436V36.7928Z" fill="black"/>
<path d="M45.4846 40.5034C45.087 40.6792 44.4453 40.9318 43.575 40.9318C41.558 40.9318 40.725 39.486 40.725 38.3C40.725 36.9226 41.7569 35.5768 43.5443 35.5768C44.2774 35.5768 44.8198 35.7834 45.3773 36.02V36.785C44.522 36.2876 43.8197 36.2418 43.5293 36.2418C42.49 36.2418 41.5047 37.0226 41.5047 38.2542C41.5047 39.4092 42.3376 40.2742 43.5974 40.2742C43.9794 40.2742 44.2398 40.205 44.7357 40.0442V38.9576H43.7356V38.3H45.4846V40.5034Z" fill="black"/>
<path d="M51.4512 38.652L50.6108 36.762L49.832 38.652H51.4512ZM53.2162 40.8628H52.4523L51.7565 39.3252H49.5416L48.8842 40.8628H48.1203L50.3586 35.6144H50.8862L53.2162 40.8628Z" fill="black"/>
<path d="M54.3922 35.6458H53.7124V40.8634H54.3922V35.6458Z" fill="black"/>
<path d="M57.5477 40.863V40.427C57.2348 40.7712 56.8296 40.932 56.5085 40.932C56.2946 40.932 55.8211 40.8554 55.5381 40.3812C55.4317 40.213 55.3476 40.0138 55.3476 39.3862V37.428H56.035V39.3862C56.035 39.7762 56.035 40.3654 56.7305 40.3654C57.0509 40.3654 57.3414 40.1746 57.5477 39.8838V37.428H58.2351V40.863H57.5477Z" fill="black"/>
<path d="M59.8321 37.4278V37.8796C60.2289 37.4812 60.5043 37.3586 60.8556 37.3586C61.2682 37.3586 61.6426 37.5812 61.8641 37.9786C62.3067 37.5354 62.5896 37.3586 62.9948 37.3586C63.7356 37.3586 64.1407 37.8486 64.1407 38.7212V40.8628H63.4683V38.767C63.4683 38.2236 63.2013 37.9404 62.7578 37.9404C62.4982 37.9404 62.1928 38.1162 61.9863 38.3686V40.8628H61.3141V38.8054C61.3141 38.3462 61.2067 37.9328 60.6341 37.9328C60.313 37.9328 60.061 38.1012 59.8321 38.3686V40.8628H59.1597V37.4278H59.8321Z" fill="black"/>
<path d="M65.7604 37.4278V37.8636C66.0657 37.5196 66.4709 37.3586 66.7913 37.3586C67.0051 37.3586 67.4794 37.4354 67.7616 37.9096C67.8689 38.0778 67.9529 38.277 67.9529 38.9046V40.8628H67.2656V38.9046C67.2656 38.537 67.2656 38.3462 67.0816 38.1396C66.9518 37.9936 66.7996 37.9254 66.57 37.9254C66.257 37.9254 65.9667 38.1086 65.7604 38.407V40.8628H65.0656V37.4278H65.7604Z" fill="black"/>
<path d="M69.5957 40.8634H68.9159V37.4284H69.5957V40.8634ZM69.6564 36.38C69.6564 36.5942 69.4733 36.785 69.252 36.785C68.9924 36.785 68.8542 36.5484 68.8542 36.38C68.8542 36.1884 69.0223 35.9816 69.252 35.9816C69.4809 35.9816 69.6564 36.1658 69.6564 36.38Z" fill="black"/>
<path d="M131.174 21.2278H130.04V26.952H131.174V22.847C131.708 22.2486 132.102 22.0196 132.599 22.0196C133.288 22.0196 133.719 22.5678 133.719 23.4078V26.952H134.851V23.422C134.851 21.8536 133.987 21.1146 132.905 21.1146C132.267 21.1146 131.632 21.4328 131.198 21.9804H131.174V21.2278ZM127.767 23.5096C127.727 22.6436 127.232 22.0962 126.429 22.0962C125.563 22.0962 125.041 22.6046 124.888 23.5096H127.767ZM128.784 26.3928C128.097 26.8504 127.474 27.0662 126.506 27.0662C124.724 27.0662 123.73 25.6012 123.73 24.0204C123.73 22.2862 124.825 21.1136 126.404 21.1136C127.919 21.1136 128.886 22.147 128.886 24.2628H124.864C125.041 25.3978 125.69 25.9828 126.786 25.9828C127.474 25.9828 128.122 25.7286 128.784 25.2946V26.3928ZM121.503 26.952H122.637V18.2578H121.503V26.952ZM118.843 26.952H119.976V18.2578H118.843V26.952ZM115.991 24.1228C115.025 24.4536 114.183 24.7846 114.183 25.4604C114.183 25.932 114.529 26.2636 115 26.2636C115.356 26.2636 115.687 26.0862 115.991 25.7912V24.1228ZM117.939 26.6204C117.418 26.9654 117.201 27.067 116.846 27.067C116.349 27.067 116.081 26.8878 115.979 26.4804C115.483 26.8762 114.961 27.067 114.439 27.067C113.598 27.067 113.039 26.4046 113.039 25.6646C113.039 24.5304 114.07 24.1862 114.986 23.8554L115.991 23.4978V23.1912C115.991 22.4778 115.649 22.1846 114.961 22.1846C114.336 22.1846 113.701 22.4778 113.153 23.1278V21.8912C113.598 21.3686 114.223 21.1146 115.05 21.1146C116.209 21.1146 117.125 21.7004 117.125 23.0012V25.9454C117.125 26.1612 117.201 26.2386 117.341 26.2386C117.455 26.2386 117.684 26.1236 117.939 25.932V26.6204ZM111.792 22.6686H108.876V23.7912H110.545V25.5754C109.946 25.767 109.335 25.9204 108.661 25.9204C106.599 25.9204 105.147 24.5554 105.147 22.6178C105.147 20.7312 106.61 19.2912 108.495 19.2912C109.539 19.2912 110.595 19.5836 111.614 20.1454V18.8828C110.251 18.3096 109.539 18.1436 108.52 18.1436C105.872 18.1436 103.862 20.0946 103.862 22.6554C103.862 25.2062 105.821 27.0662 108.483 27.0662C109.691 27.0662 110.633 26.8628 111.792 26.3536V22.6686ZM102.589 26.3028C102.589 25.8812 102.245 25.5378 101.825 25.5378C101.405 25.5378 101.062 25.8812 101.062 26.3028C101.062 26.722 101.405 27.067 101.825 27.067C102.245 27.067 102.589 26.722 102.589 26.3028ZM98.261 20.0436L96.1358 22.1212V22.2486H97.1285V25.2686C97.1285 26.3028 97.7518 27.067 98.9874 27.067C99.3568 27.067 99.9669 26.9012 100.362 26.6846V25.6262C99.9036 25.907 99.4834 26.047 99.0756 26.047C98.7453 26.047 98.261 25.8562 98.261 25.1812V22.2486H100.069V21.2278H98.261V20.0436ZM95.3853 18.7554C94.7736 18.347 94.1122 18.1436 93.4498 18.1436C91.8589 18.1436 90.8145 19.0486 90.8145 20.4636C90.8145 22.847 94.5699 23.052 94.5699 24.8496C94.5699 25.3336 94.1246 25.9454 93.1586 25.9454C92.3041 25.9454 91.5026 25.4996 90.8654 24.6828V26.2636C91.5917 26.812 92.3548 27.067 93.2968 27.067C94.6979 27.067 95.7282 26.0728 95.7282 24.7086C95.7282 21.942 91.9737 21.967 91.9737 20.2978C91.9737 19.6854 92.5461 19.2654 93.3475 19.2654C93.934 19.2654 94.6472 19.4686 95.3853 20.1704V18.7554ZM84.7526 20.0436L82.6276 22.1212V22.2486H83.6201V25.2686C83.6201 26.3028 84.2434 27.067 85.4784 27.067C85.8478 27.067 86.4577 26.9012 86.8529 26.6846V25.6262C86.3944 25.907 85.9742 26.047 85.5664 26.047C85.2361 26.047 84.7526 25.8562 84.7526 25.1812V22.2486H86.5592V21.2278H84.7526V20.0436ZM80.5407 24.1228C79.5721 24.4536 78.7316 24.7846 78.7316 25.4604C78.7316 25.932 79.0761 26.2636 79.5472 26.2636C79.9032 26.2636 80.2351 26.0862 80.5407 25.7912V24.1228ZM78.5418 18.9462C78.8722 18.9462 79.1278 19.2012 79.1278 19.5328C79.1278 19.8654 78.8722 20.132 78.5418 20.132C78.2107 20.132 77.9427 19.8654 77.9427 19.5328C77.9427 19.2012 78.2107 18.9462 78.5418 18.9462ZM80.9091 18.9462C81.2404 18.9462 81.4951 19.2012 81.4951 19.5328C81.4951 19.8654 81.2404 20.132 80.9091 20.132C80.578 20.132 80.31 19.8654 80.31 19.5328C80.31 19.2012 80.578 18.9462 80.9091 18.9462ZM82.4878 26.6204C81.9652 26.9654 81.7489 27.067 81.3926 27.067C80.8968 27.067 80.6288 26.8878 80.5265 26.4804C80.0314 26.8762 79.5088 27.067 78.987 27.067C78.1466 27.067 77.5867 26.4046 77.5867 25.6646C77.5867 24.5304 78.6175 24.1862 79.5346 23.8554L80.5407 23.4978V23.1912C80.5407 22.4778 80.1962 22.1846 79.5088 22.1846C78.8847 22.1846 78.2491 22.4778 77.7023 23.1278V21.8912C78.1466 21.3686 78.7707 21.1146 79.5979 21.1146C80.7562 21.1146 81.673 21.7004 81.673 23.0012V25.9454C81.673 26.1612 81.7489 26.2386 81.8895 26.2386C82.0035 26.2386 82.2332 26.1236 82.4878 25.932V26.6204ZM74.825 20.0436L72.6989 22.1212V22.2486H73.6916V25.2686C73.6916 26.3028 74.3157 27.067 75.5497 27.067C75.9191 27.067 76.5306 26.9012 76.9242 26.6846V25.6262C76.4675 25.907 76.0463 26.047 75.6395 26.047C75.3084 26.047 74.825 25.8562 74.825 25.1812V22.2486H76.6331V21.2278H74.825V20.0436ZM71.7445 21.2278H70.612V26.952H71.7445V21.2278ZM71.1853 20.1704C71.554 20.1704 71.8593 19.8654 71.8593 19.4962C71.8593 19.1262 71.554 18.8196 71.1853 18.8196C70.8159 18.8196 70.5095 19.1262 70.5095 19.4962C70.5095 19.8654 70.8159 20.1704 71.1853 20.1704ZM69.0717 21.5854C68.4736 21.267 67.926 21.1146 67.391 21.1146C66.2459 21.1146 65.507 21.6996 65.507 22.6686C65.507 24.212 68.1806 24.6312 68.1806 25.422C68.1806 25.8304 67.7986 26.047 67.3402 26.0728C66.8817 26.0728 66.2077 25.8304 65.4696 25.3196V26.5454C66.2077 26.927 66.7543 27.067 67.4551 27.067C68.5375 27.067 69.3389 26.392 69.3389 25.3846C69.3389 24.7986 68.9952 24.4028 68.0542 23.7778C67.0481 23.1912 66.6662 22.8862 66.6662 22.6312C66.6662 22.3246 66.959 22.1078 67.4167 22.1078C67.8369 22.1078 68.4352 22.2862 69.0717 22.7078V21.5854ZM58.6505 23.5096C58.6122 22.6436 58.1163 22.0962 57.3141 22.0962C56.4488 22.0962 55.9271 22.6046 55.774 23.5096H58.6505ZM59.669 26.3928C58.9816 26.8504 58.3575 27.0662 57.3908 27.0662C55.6092 27.0662 54.6157 25.6012 54.6157 24.0204C54.6157 22.2862 55.7107 21.1136 57.2891 21.1136C58.8037 21.1136 59.7715 22.147 59.7715 24.2628H55.749C55.9271 25.3978 56.5762 25.9828 57.6704 25.9828C58.3575 25.9828 59.0076 25.7286 59.669 25.2946V26.3928ZM53.1521 21.2278L51.6501 24.747L50.1098 21.2278H48.8758L51.4596 27.0662H51.8406L54.3619 21.2278H53.1521ZM48.0738 21.2278H46.9413V26.952H48.0738V21.2278ZM47.5128 20.1704C47.8831 20.1704 48.1886 19.8654 48.1886 19.4962C48.1886 19.1262 47.8831 18.8196 47.5128 18.8196C47.1442 18.8196 46.8388 19.1262 46.8388 19.4962C46.8388 19.8654 47.1442 20.1704 47.5128 20.1704ZM41.7855 21.2278H40.653V26.952H41.7855V22.847C42.3205 22.2486 42.7149 22.0196 43.211 22.0196C43.8982 22.0196 44.3309 22.5678 44.3309 23.4078V26.952H45.4643V23.422C45.4643 21.8536 44.5989 21.1146 43.5171 21.1146C42.8797 21.1146 42.244 21.4328 41.8113 21.9804H41.7855V21.2278ZM39.3034 18.2578H38.056V23.3196C38.056 24.1354 37.9538 24.772 37.5084 25.2186C37.114 25.6136 36.4268 25.9204 35.4725 25.9204C34.721 25.9204 34.0977 25.677 33.601 25.1812C33.2066 24.7846 33.0792 24.3778 33.0792 23.3946V18.2578H31.8318V23.6636C31.8318 26.0336 33.6142 27.067 35.4465 27.067C38.0311 27.067 39.3034 25.6646 39.3034 23.5354V18.2578ZM63.9127 21.1146C64.3337 21.1146 64.7341 21.297 65.1617 21.6736L64.5618 22.6546C64.2388 22.3796 63.8578 22.197 63.6198 22.197C62.8435 22.197 62.2318 22.9754 62.2318 23.957V26.952H61.0995V21.2278H62.2318V22.5412H62.2578C62.8301 21.5346 63.3777 21.1146 63.9127 21.1146Z" fill="black"/>
<path d="M16.2401 18.9176C15.126 18.1358 13.5825 18.4808 12.9051 19.6616L8.44589 27.4384L26.0448 28.9808V25.7926L16.2401 18.9176ZM26.0448 0L12.0763 6.5226C11.7792 6.6616 11.642 7.0076 11.7626 7.3126L11.8225 7.465C11.9066 7.6758 12.0997 7.8134 12.3233 7.8516C12.9117 7.9516 13.4427 8.3292 13.7139 8.9126C14.0326 9.5966 13.9052 10.3742 13.4517 10.9176C13.3418 11.0484 13.3103 11.2266 13.3728 11.385C13.4651 11.6184 13.7255 11.735 13.9601 11.65L26.0448 7.245V0ZM10.3912 7.9708C10.2432 7.5416 9.857 7.2392 9.40606 7.1992L0 6.375L2.03958 17.96L11.4564 12.515C11.6961 12.3758 11.8033 12.0866 11.7111 11.8258C11.6543 11.665 11.5295 11.5384 11.3708 11.4808C10.6458 11.2184 10.1284 10.5242 10.1284 9.7084C10.1284 9.4116 10.1975 9.1316 10.3189 8.8824C10.4587 8.5966 10.4945 8.2716 10.3912 7.9708ZM11.854 16.4108L11.1693 15.6474C10.8032 15.2408 10.2033 15.1458 9.72979 15.4192L2.34413 19.69L3.63462 27.0166L6.51695 27.27L11.9964 17.7658C12.2469 17.3308 12.1895 16.7842 11.854 16.4108ZM26.0448 20.2866L15.8 16.5526C15.4471 16.4234 15.1783 16.1308 15.0793 15.7676L14.9063 15.1334C14.7274 14.475 15.1518 13.805 15.8224 13.6866L26.0448 11.8816V20.2866Z" fill="black"/>
</g>
<defs>
<clipPath id="clip0_27_1202">
<rect width="135" height="41" fill="white"/>
</clipPath>
</defs>
</svg>
